<svg xmlns="http://www.w3.org/2000/svg" width="2400" height="1350" viewBox="0 0 2400 1350" role="img" aria-label="Opera House with a golden digital sunrise">
  <defs>
    <linearGradient id="g0" x1="0" y1="0" x2="1" y2="1">
      <stop offset="0" stop-color="#05070c"/>
      <stop offset="1" stop-color="#0b1020"/>
    </linearGradient>
    <radialGradient id="goldGlow" cx="30%" cy="24%" r="70%">
      <stop offset="0" stop-color="rgba(212,175,55,.26)"/>
      <stop offset="0.55" stop-color="rgba(212,175,55,.08)"/>
      <stop offset="1" stop-color="rgba(212,175,55,0)"/>
    </radialGradient>
    <radialGradient id="blueGlow" cx="80%" cy="18%" r="70%">
      <stop offset="0" stop-color="rgba(160,220,255,.10)"/>
      <stop offset="1" stop-color="rgba(120,180,255,0)"/>
    </radialGradient>
    <filter id="blur" x="-20%" y="-20%" width="140%" height="140%">
      <feGaussianBlur stdDeviation="8"/>
    </filter>
  </defs>

  <rect width="2400" height="1350" fill="url(#g0)"/>
  <rect width="2400" height="1350" fill="url(#goldGlow)"/>
  <rect width="2400" height="1350" fill="url(#blueGlow)"/>

  <g opacity="0.8"><path d="M 864.6 695.1 Q 1613.6 501.5 2378.3 14.2" stroke="rgba(243,210,122,0.127)" stroke-width="1.97" fill="none"/><path d="M 1760.1 742.9 Q 1279.1 827.1 295.6 799.2" stroke="rgba(243,210,122,0.127)" stroke-width="1.93" fill="none"/><path d="M 2098.8 1365.3 Q 2317.4 595.8 2592.1 23.6" stroke="rgba(243,210,122,0.095)" stroke-width="1.03" fill="none"/><path d="M 1002.6 780.8 Q 450.3 1001.2 -38.1 1421.0" stroke="rgba(243,210,122,0.076)" stroke-width="1.37" fill="none"/><path d="M 1713.5 97.6 Q 1133.1 126.8 1082.7 -17.1" stroke="rgba(243,210,122,0.085)" stroke-width="1.56" fill="none"/><path d="M 534.1 1379.9 Q 1476.0 1187.6 2467.9 733.8" stroke="rgba(243,210,122,0.120)" stroke-width="1.26" fill="none"/><path d="M 710.7 654.8 Q 1984.8 638.1 2565.3 747.1" stroke="rgba(243,210,122,0.065)" stroke-width="1.31" fill="none"/><path d="M 239.4 1098.3 Q 135.4 886.0 -36.6 846.0" stroke="rgba(243,210,122,0.125)" stroke-width="1.28" fill="none"/><path d="M 819.0 312.7 Q 1610.3 52.2 1713.3 183.4" stroke="rgba(243,210,122,0.097)" stroke-width="1.92" fill="none"/><path d="M 979.4 995.2 Q 1240.2 906.8 1423.6 1141.3" stroke="rgba(243,210,122,0.108)" stroke-width="1.55" fill="none"/><path d="M 2512.1 1162.4 Q 2267.9 993.1 2357.9 809.9" stroke="rgba(243,210,122,0.083)" stroke-width="2.15" fill="none"/><path d="M 95.3 923.7 Q 576.0 683.6 1574.5 97.3" stroke="rgba(243,210,122,0.068)" stroke-width="2.08" fill="none"/><path d="M 2340.4 659.6 Q 2268.1 743.0 1579.4 787.0" stroke="rgba(243,210,122,0.067)" stroke-width="1.20" fill="none"/><path d="M 1989.7 384.1 Q 805.2 276.0 -49.3 351.5" stroke="rgba(243,210,122,0.094)" stroke-width="1.02" fill="none"/></g>
  <g><circle cx="119.8" cy="1159.6" r="4.9" fill="rgba(212,175,55,0.070)"/><circle cx="1977.6" cy="997.6" r="5.4" fill="rgba(212,175,55,0.134)"/><circle cx="1211.8" cy="405.6" r="2.3" fill="rgba(212,175,55,0.077)"/><circle cx="261.7" cy="206.2" r="5.6" fill="rgba(212,175,55,0.117)"/><circle cx="0.3" cy="327.3" r="3.5" fill="rgba(212,175,55,0.083)"/><circle cx="858.5" cy="480.4" r="5.9" fill="rgba(212,175,55,0.086)"/><circle cx="1414.4" cy="431.5" r="5.9" fill="rgba(212,175,55,0.063)"/><circle cx="471.3" cy="1184.3" r="4.9" fill="rgba(212,175,55,0.068)"/><circle cx="219.9" cy="181.5" r="3.6" fill="rgba(212,175,55,0.120)"/><circle cx="1299.2" cy="881.2" r="2.5" fill="rgba(212,175,55,0.132)"/><circle cx="1054.5" cy="939.2" r="4.6" fill="rgba(212,175,55,0.100)"/><circle cx="434.3" cy="1317.9" r="3.2" fill="rgba(212,175,55,0.067)"/><circle cx="1434.8" cy="1188.4" r="4.3" fill="rgba(212,175,55,0.081)"/><circle cx="1755.3" cy="740.6" r="2.7" fill="rgba(212,175,55,0.075)"/><circle cx="305.9" cy="567.4" r="6.0" fill="rgba(212,175,55,0.093)"/><circle cx="945.9" cy="1319.0" r="4.9" fill="rgba(212,175,55,0.113)"/><circle cx="1099.9" cy="1139.0" r="4.7" fill="rgba(212,175,55,0.093)"/><circle cx="69.9" cy="1332.9" r="4.5" fill="rgba(212,175,55,0.135)"/><circle cx="2116.8" cy="1027.2" r="3.2" fill="rgba(212,175,55,0.136)"/><circle cx="957.0" cy="772.6" r="4.0" fill="rgba(212,175,55,0.129)"/><circle cx="881.1" cy="551.4" r="5.5" fill="rgba(212,175,55,0.080)"/><circle cx="2126.8" cy="1250.6" r="3.8" fill="rgba(212,175,55,0.062)"/><circle cx="1700.3" cy="656.5" r="2.5" fill="rgba(212,175,55,0.121)"/><circle cx="685.5" cy="1173.3" r="2.5" fill="rgba(212,175,55,0.052)"/><circle cx="341.3" cy="1192.5" r="2.8" fill="rgba(212,175,55,0.115)"/><circle cx="1929.4" cy="1345.5" r="3.0" fill="rgba(212,175,55,0.072)"/><circle cx="744.5" cy="731.3" r="3.2" fill="rgba(212,175,55,0.080)"/><circle cx="121.1" cy="321.8" r="5.6" fill="rgba(212,175,55,0.086)"/><circle cx="726.6" cy="751.1" r="2.8" fill="rgba(212,175,55,0.092)"/><circle cx="274.3" cy="665.7" r="2.1" fill="rgba(212,175,55,0.136)"/><circle cx="2337.2" cy="674.5" r="4.9" fill="rgba(212,175,55,0.080)"/><circle cx="2117.0" cy="83.0" r="2.6" fill="rgba(212,175,55,0.092)"/><circle cx="1706.5" cy="1192.9" r="4.8" fill="rgba(212,175,55,0.123)"/><circle cx="1716.5" cy="113.6" r="4.8" fill="rgba(212,175,55,0.125)"/><circle cx="881.8" cy="642.1" r="4.3" fill="rgba(212,175,55,0.133)"/><circle cx="271.5" cy="55.4" r="4.2" fill="rgba(212,175,55,0.091)"/><circle cx="1291.2" cy="460.1" r="2.5" fill="rgba(212,175,55,0.124)"/><circle cx="576.5" cy="99.2" r="2.9" fill="rgba(212,175,55,0.072)"/></g>

  <g filter="url(#blur)" opacity="0.9">
    <circle cx="1752.0" cy="621.0" r="210" fill="rgba(255,255,255,.04)"/>
  </g>

  <g><circle cx="1752.0" cy="621.0" r="160" fill="none" stroke="rgba(212,175,55,0.180)" stroke-width="1.2"/><circle cx="1752.0" cy="621.0" r="215" fill="none" stroke="rgba(212,175,55,0.150)" stroke-width="1.2"/><circle cx="1752.0" cy="621.0" r="270" fill="none" stroke="rgba(212,175,55,0.120)" stroke-width="1.2"/><circle cx="1752.0" cy="621.0" r="325" fill="none" stroke="rgba(212,175,55,0.090)" stroke-width="1.2"/></g>

  <g>
    <rect x="1562.0" y="555.0" width="380" height="132" rx="26" fill="rgba(255,255,255,.05)" stroke="rgba(255,255,255,.10)"/>
    <text x="1752.0" y="613.0" text-anchor="middle" font-family="ui-sans-serif,system-ui" font-size="50" fill="rgba(245,247,255,.92)" letter-spacing="2">W3</text>
    <text x="1752.0" y="655.0" text-anchor="middle" font-family="ui-sans-serif,system-ui" font-size="22" fill="rgba(245,247,255,.60)" letter-spacing="1">w3.sydney</text>
  </g>

  <g opacity="0.9">
    <circle cx="432.0" cy="1053.0" r="280" fill="rgba(212,175,55,.06)"/>
    <circle cx="432.0" cy="1053.0" r="279" fill="none" stroke="rgba(255,255,255,.06)"/>
  </g>
</svg>